<svg id="Layer_1" data-name="Layer 1" xmlns="http://www.w3.org/2000/svg" viewBox="0 0 512 512"><defs><style>.cls-1{fill:none;stroke:#fdd600;stroke-miterlimit:10;stroke-width:8px;}</style></defs><title>hog-hand-icon</title><g id="being-visionary"><path id="green_hand" class="cls-1" d="M72.94,276.61c2.72,16,16.85,86.69,18.11,101.49s11.44,95.47,32.66,112.72c19.64,16,124.25,10.88,142.52,2.55S344,435.25,354,410s30.34-41.89,39.85-57.61,39.32-31.81,44.57-49.88c0,0,30.38-9.36,31.36-29.77S438,249.68,422.34,256.43s-88.07,64.42-96.26,63.76-14.8,1.26-16.49-2.67-.65-55.52-6.52-76.72c0,0,20.56-115.11,23.29-172.78,1.79-37.78-30.69-32.83-35.79-6.45-.82,4.19-36.09,165.74-40.13,166.08S238,64.68,232.75,35.29s-38.51-22.48-40.83-1.95-6.88,190.37-9.57,190.6-20-140.79-25.08-174.29c-4.37-28.9-36.25-21.14-37,2s7.92,189.12.3,195.19S77.62,144.86,69.68,126.41c-11.77-27.34-34-17.44-32.3,2.75S72.94,276.61,72.94,276.61Z"/></g></svg>